<?xml version="1.0" encoding="UTF-8"?>
<svg width="100" height="100" version="1.1" xmlns="http://www.w3.org/2000/svg">
 <path d="m87.77 23.809v71.504c0 2.598-2.09 4.688-4.687 4.688h-65.626c-2.598 0-4.687-2.09-4.687-4.687v-90.626c0-2.598 2.09-4.688 4.687-4.688h46.485z" fill="#3771c8" opacity=".995"/>
 <path d="M63.942 23.809L87.77 47.637V23.809z" opacity=".4"/>
 <path d="M86.403 20.508L67.262 1.367C66.383.488 65.192 0 63.942 0v23.809H87.77c0-1.23-.488-2.422-1.367-3.301z" fill="#afc6e9"/>
 <path d="m31.989 84.202v-32.463h6.275l6.275 11.935 6.275-11.935h6.275v32.463h-6.275v-18.619l-6.275 11.935-6.275-11.935v18.619zm39.219 0-9.4126-15.754h6.275v-16.709h6.275v16.709h6.275z" display="none" opacity=".996" stroke-width=".38702"/>
 <path d="m29.106 82.326v-39.518h9.4299l9.4299 14.529 9.4299-14.529h9.4299v39.518h4.6084l-9.1988 12.011-9.2002-12.011h4.3608v-22.665l-9.4299 14.529-9.4299-14.529v22.665z" display="none" opacity=".995" stroke-width=".34045"/>
 <path d="m22.059 24.408q0-3.0924 1.9857-6.25 1.9857-3.1901 5.7943-5.2734t8.8867-2.0833q4.7201 0 8.3333 1.7578 3.6133 1.7253 5.5664 4.7201 1.9857 2.9948 1.9857 6.5104 0 2.7669-1.1393 4.8503-1.1068 2.0833-2.6693 3.6133-1.5299 1.4974-5.5339 5.0781-1.1068 1.0091-1.7904 1.7904-0.65104 0.7487-0.97656 1.3997-0.32552 0.61849-0.52083 1.2695-0.16276 0.61849-0.52083 2.2135-0.61849 3.3854-3.8737 3.3854-1.6927 0-2.8646-1.1068-1.1393-1.1068-1.1393-3.2878 0-2.7344 0.84635-4.7201 0.84636-2.0182 2.2461-3.5156 1.3997-1.5299 3.776-3.6133 2.0833-1.8229 2.9948-2.7344 0.94401-0.94401 1.5625-2.0833 0.65104-1.1393 0.65104-2.474 0-2.6042-1.9531-4.3945-1.9206-1.7904-4.9805-1.7904-3.5807 0-5.2734 1.8229-1.6927 1.7904-2.8646 5.306-1.1068 3.6784-4.1992 3.6784-1.8229 0-3.0924-1.2695-1.237-1.3021-1.237-2.7995zm15.885 35.677q-1.9857 0-3.4831-1.2695-1.4648-1.3021-1.4648-3.6133 0-2.0508 1.4323-3.4505t3.5156-1.3997q2.0508 0 3.4505 1.3997t1.3997 3.4505q0 2.2786-1.4648 3.5807t-3.3854 1.3021z" fill="#fff"/>
 <path d="m12.77 70.886v24.428c0 2.597 2.0895 4.6875 4.6875 4.6875h65.625c2.597 0 4.6875-2.0895 4.6875-4.6875v-24.428zm14.84 3.7734h5.8477l5.8477 7.9297 5.8477-7.9297h5.8477v21.568h-5.8477v-12.369l-5.8477 7.9297-5.8477-7.9297v12.369h-5.8477zm33.623 0h5.8496v11.102h5.8477l-8.7715 10.467-8.7715-10.467h5.8457z"/>
</svg>
