<?xml version="1.0" encoding="UTF-8" standalone="no"?>
<svg
   xmlns:dc="http://purl.org/dc/elements/1.1/"
   xmlns:cc="http://creativecommons.org/ns#"
   xmlns:rdf="http://www.w3.org/1999/02/22-rdf-syntax-ns#"
   xmlns:svg="http://www.w3.org/2000/svg"
   xmlns="http://www.w3.org/2000/svg"
   xmlns:sodipodi="http://sodipodi.sourceforge.net/DTD/sodipodi-0.dtd"
   xmlns:inkscape="http://www.inkscape.org/namespaces/inkscape"
   width="200mm"
   height="200mm"
   viewBox="0 0 200 200"
   version="1.1"
   id="svg8"
   inkscape:version="1.0.2-2 (e86c870879, 2021-01-15)"
   sodipodi:docname="MD1.svg">
  <defs
     id="defs2" />
  <sodipodi:namedview
     id="base"
     pagecolor="#ffffff"
     bordercolor="#666666"
     borderopacity="1.0"
     inkscape:pageopacity="0.0"
     inkscape:pageshadow="2"
     inkscape:zoom="0.49497475"
     inkscape:cx="248.896"
     inkscape:cy="528.13893"
     inkscape:document-units="mm"
     inkscape:current-layer="svg8"
     inkscape:document-rotation="0"
     showgrid="false"
     inkscape:window-width="1920"
     inkscape:window-height="1017"
     inkscape:window-x="-8"
     inkscape:window-y="-8"
     inkscape:window-maximized="1" />
  <metadata
     id="metadata5">
    <rdf:RDF>
      <cc:Work
         rdf:about="">
        <dc:format>image/svg+xml</dc:format>
        <dc:type
           rdf:resource="http://purl.org/dc/dcmitype/StillImage" />
        <dc:title />
      </cc:Work>
    </rdf:RDF>
  </metadata>
  <path
     id="rect849"
     style="display:inline;opacity:1;fill:#000000;stroke-width:0.669135"
     d="M 35.576689,25 C 29.717309,25 25,32.68125 25,42.22221 V 157.77779 C 25,167.31871 29.717309,175 35.576689,175 H 164.42332 C 170.2827,175 175,167.31871 175,157.77779 V 42.22221 C 175,32.68125 170.2827,25 164.42332,25 Z m 8.344986,34.869643 h 14.495189 l 14.367165,29.01939 14.398905,-28.93932 14.420426,-0.0798 V 140.13227 H 87.462534 L 87.182934,94.539383 72.784029,123.87404 58.866482,94.933013 58.586874,140.13227 H 43.921675 Z m 82.851875,0 h 14.68158 v 40.985047 h 14.62318 l -21.92969,39.17057 -21.88973,-39.17057 h 14.51466 z"
     inkscape:label="path1"
     sodipodi:insensitive="true" />
</svg>
