<?xml version="1.0" encoding="UTF-8" standalone="no"?>
<svg
   xmlns:dc="http://purl.org/dc/elements/1.1/"
   xmlns:cc="http://creativecommons.org/ns#"
   xmlns:rdf="http://www.w3.org/1999/02/22-rdf-syntax-ns#"
   xmlns:svg="http://www.w3.org/2000/svg"
   xmlns="http://www.w3.org/2000/svg"
   xmlns:sodipodi="http://sodipodi.sourceforge.net/DTD/sodipodi-0.dtd"
   xmlns:inkscape="http://www.inkscape.org/namespaces/inkscape"
   width="64"
   height="64"
   version="1.1"
   id="svg18"
   sodipodi:docname="mdfolder.svg"
   inkscape:version="1.0.2-2 (e86c870879, 2021-01-15)">
  <metadata
     id="metadata24">
    <rdf:RDF>
      <cc:Work
         rdf:about="">
        <dc:format>image/svg+xml</dc:format>
        <dc:type
           rdf:resource="http://purl.org/dc/dcmitype/StillImage" />
        <dc:title></dc:title>
      </cc:Work>
    </rdf:RDF>
  </metadata>
  <defs
     id="defs22" />
  <sodipodi:namedview
     pagecolor="#ffffff"
     bordercolor="#666666"
     borderopacity="1"
     objecttolerance="10"
     gridtolerance="10"
     guidetolerance="10"
     inkscape:pageopacity="0"
     inkscape:pageshadow="2"
     inkscape:window-width="1920"
     inkscape:window-height="1017"
     id="namedview20"
     showgrid="false"
     inkscape:zoom="7.4025242"
     inkscape:cx="24.01872"
     inkscape:cy="43.636186"
     inkscape:window-x="-8"
     inkscape:window-y="-8"
     inkscape:window-maximized="1"
     inkscape:current-layer="svg18"
     inkscape:document-rotation="0" />
  <rect
     width="50"
     height="32"
     x="7"
     y="24"
     rx="2.5"
     opacity=".2"
     id="rect2" />
  <path
     fill="#b58f1b"
     d="M7 44.5C7 45.885 8.115 47 9.5 47h45c1.385 0 2.5-1.115 2.5-2.5v-27c0-1.385-1.115-2.5-2.5-2.5H29v-2.5c0-1.385-1.115-2.5-2.5-2.5h-17C8.115 10 7 11.115 7 12.5"
     id="path4" />
  <rect
     width="50"
     height="32"
     x="7"
     y="22"
     rx="2.5"
     opacity=".2"
     id="rect6" />
  <rect
     fill="#e4e4e4"
     width="44"
     height="20"
     x="10"
     y="18"
     rx="2.5"
     id="rect8" />
  <rect
     fill="#e2b322"
     width="50"
     height="32"
     x="7"
     y="23"
     rx="2.5"
     id="rect10"
     style="opacity:0.99800004" />
  <path
     fill="#fff"
     d="M9.5 10C8.115 10 7 11.115 7 12.5v1C7 12.115 8.115 11 9.5 11h17c1.385 0 2.5 1.115 2.5 2.5v-1c0-1.385-1.115-2.5-2.5-2.5zM29 15v1h25.5a2.49 2.49 0 0 1 2.5 2.5v-1a2.49 2.49 0 0 0-2.5-2.5z"
     opacity=".1"
     id="path12" />
  <path
     d="M 14.253067,46.785751 V 31.214249 h 4.579859 l 4.579851,5.724817 4.579851,-5.724817 h 4.579858 v 15.571502 h -4.579858 v -8.930714 l -4.579851,5.724816 -4.579851,-5.724816 v 8.930714 z m 28.624088,0 -6.869784,-7.556758 h 4.579852 v -8.014744 h 4.579859 v 8.014744 h 4.579851 z"
     id="path851"
     style="display:none;opacity:0.998;fill:#4f3e0c;fill-opacity:1;stroke-width:0.228993" />
  <path
     id="rect848"
     style="opacity:0.998;fill:#4f3e0c;stroke-width:0.591743;fill-opacity:1"
     d="m 13.334575,28.508091 c -1.613658,0 -2.91274,0.857868 -2.91274,1.923469 v 17.135597 c 0,1.065602 1.299082,1.92347 2.91274,1.92347 h 37.39203 c 1.613659,0 2.912741,-0.857868 2.912741,-1.92347 V 30.43156 c 0,-1.065601 -1.299082,-1.923469 -2.912741,-1.923469 z m 0.989877,2.686095 h 4.568226 l 4.569646,5.739415 4.569648,-5.739415 h 4.569648 v 15.610346 h -4.569648 v -8.952399 l -4.569648,5.738476 -4.569646,-5.738476 v 8.952399 h -4.568226 z m 26.272982,0 h 4.569648 v 8.034807 h 4.569647 l -6.853761,7.575539 -6.853759,-7.575539 h 4.568225 z" />
</svg>
