<?xml version="1.0" encoding="UTF-8" standalone="no"?>
<svg width="200mm" height="200mm" viewBox="0 0 200 200">
  <path
     id="rect849"
     style="display:inline;opacity:1;fill:#000000;stroke-width:0.669135"
     d="M 35.576689,25 C 29.717309,25 25,32.68125 25,42.22221 V 157.77779 C 25,167.31871 29.717309,175 35.576689,175 H 164.42332 C 170.2827,175 175,167.31871 175,157.77779 V 42.22221 C 175,32.68125 170.2827,25 164.42332,25 Z m 8.344986,34.869643 h 14.495189 l 14.367165,29.01939 14.398905,-28.93932 14.420426,-0.0798 V 140.13227 H 87.462534 L 87.182934,94.539383 72.784029,123.87404 58.866482,94.933013 58.586874,140.13227 H 43.921675 Z m 82.851875,0 h 14.68158 v 40.985047 h 14.62318 l -21.92969,39.17057 -21.88973,-39.17057 h 14.51466 z"/>
</svg>