<svg xmlns="http://www.w3.org/2000/svg" viewBox="0 0 48 48">
 <path fill="#424242" d="M9 11h30v3H9z"/>
 <path fill="#616161" d="M4 25h40v-7c0-2.2-1.8-4-4-4H8c-2.2 0-4 1.8-4 4v7z"/>
 <path fill="#424242" d="M8 36h32c2.2 0 4-1.8 4-4v-8H4v8c0 2.2 1.8 4 4 4z"/>
 <circle fill="#00e676" cx="40" cy="18" r="1"/>
 <path fill="#90caf9" d="M11 4h26v10H11z"/>
 <path fill="#242424" d="M37.5,31h-27C9.7,31,9,30.3,9,29.5v0c0-0.8,0.7-1.5,1.5-1.5h27c0.8,0,1.5,0.7,1.5,1.5v0 C39,30.3,38.3,31,37.5,31z"/>
 <path fill="#90caf9" d="M11 31h26v11H11z"/>
 <path fill="#42a5f5" d="M11 29h26v2H11z"/>
 <path fill="#1976d2" d="M16 33h17v2H16zm0 4h13v2H16z"/>
</svg>